<?xml version="1.0" encoding="UTF-8"?>
<svg width="60px" height="60px" viewBox="0 0 60 60" version="1.1" xmlns="http://www.w3.org/2000/svg" xmlns:xlink="http://www.w3.org/1999/xlink">
    <!-- Generator: Sketch 53.2 (72643) - https://sketchapp.com -->
    <title>button</title>
    <desc>Created with Sketch.</desc>
    <defs>
        <filter x="-1.1%" y="-4.5%" width="102.8%" height="107.5%" filterUnits="objectBoundingBox" id="filter-1">
            <feOffset dx="0" dy="0" in="SourceAlpha" result="shadowOffsetOuter1"></feOffset>
            <feGaussianBlur stdDeviation="2.5" in="shadowOffsetOuter1" result="shadowBlurOuter1"></feGaussianBlur>
            <feColorMatrix values="0 0 0 0 0   0 0 0 0 0   0 0 0 0 0  0 0 0 0.5 0" type="matrix" in="shadowBlurOuter1" result="shadowMatrixOuter1"></feColorMatrix>
            <feMerge>
                <feMergeNode in="shadowMatrixOuter1"></feMergeNode>
                <feMergeNode in="SourceGraphic"></feMergeNode>
            </feMerge>
        </filter>
    </defs>
    <g id="New-/-Edit-Post" stroke="none" stroke-width="1" fill="none" fill-rule="evenodd">
        <g id="edit_template" transform="translate(-309.000000, -557.000000)">
            <g id="banners" filter="url(#filter-1)" transform="translate(306.000000, 282.000000)">
                <g id="button" transform="translate(8.000000, 280.000000)">
                    <rect id="Rectangle-5" fill-opacity="0.7" fill="#36A3CA" fill-rule="evenodd" x="0" y="0" width="50" height="50"></rect>
                    <path d="M34.7658667,18.3013334 L30.2213334,13.7573333 C29.9315158,13.287206 29.418947,13.0006518 28.8666667,13 L16.6,13 C15.7163444,13 15,13.7163444 15,14.6 L15,34.8666668 C15,35.7503224 15.7163444,36.4666668 16.6,36.4666668 L33.6666667,36.4666668 C34.1073095,36.5295367 34.5518419,36.3813159 34.8665789,36.0665789 C35.1813158,35.751842 35.3295367,35.3073095 35.2666668,34.8666668 L35.2666668,19.9333334 C35.3078783,19.3460542 35.1293943,18.7644132 34.7658667,18.3013334 L34.7658667,18.3013334 Z M30.4666667,16.264 L32.5360001,18.3333334 L30.4666667,18.3333334 L30.4666667,16.264 Z M28.8133334,14.6 C28.8218667,14.6106667 28.8250667,14.6213333 28.8341334,14.632 L28.8672001,14.664 L28.8672001,19.9333334 L33.6672001,19.9333334 L33.6672001,25.6400001 L30.8640001,24.04 C30.5386122,23.8529867 30.126963,23.9173069 29.8741334,24.1946667 L25.4330667,29.1013334 L21.6778667,27.7146667 C21.3846235,27.6070374 21.0555566,27.6799319 20.8352,27.9013334 L16.6005333,32.1360001 L16.6005333,14.6 L28.8138667,14.6 L28.8133334,14.6 Z M16.6,34.8666668 L16.6,34.3866668 C16.6101333,34.3760001 16.6229333,34.3760001 16.632,34.3653334 L21.6037334,29.3946667 L25.3861334,30.7920001 C25.692539,30.9035515 26.0359732,30.8193248 26.256,30.5786667 L30.6293334,25.7466667 L33.6693334,27.4853334 L33.6693334,34.8666668 L16.6,34.8666668 Z M21.4037334,24.2 C22.8764927,24.2 24.0704,23.0060927 24.0704,21.5333334 C24.0704,20.060574 22.8764927,18.8666667 21.4037334,18.8666667 C19.930974,18.8666667 18.7370667,20.060574 18.7370667,21.5333334 C18.7370667,23.0060927 19.930974,24.2 21.4037334,24.2 L21.4037334,24.2 Z M21.4037334,20.4666667 C21.9928371,20.4666667 22.4704,20.9442296 22.4704,21.5333334 C22.4704,22.1224371 21.9928371,22.6 21.4037334,22.6 C20.8146296,22.6 20.3370667,22.1224371 20.3370667,21.5333334 C20.3370667,20.9442296 20.8146296,20.4666667 21.4037334,20.4666667 Z" id="Image" fill="#FFFFFF" fill-rule="nonzero"></path>
                </g>
            </g>
        </g>
    </g>
</svg>